<?xml version="1.0" standalone="no"?>
<!DOCTYPE svg PUBLIC "-//W3C//DTD SVG 20010904//EN"
 "http://www.w3.org/TR/2001/REC-SVG-20010904/DTD/svg10.dtd">
<svg version="1.0" xmlns="http://www.w3.org/2000/svg"
 width="300.000000pt" height="59.000000pt" viewBox="0 0 300.000000 59.000000"
 preserveAspectRatio="xMidYMid meet">

<g transform="translate(0.000000,59.000000) scale(0.100000,-0.100000)"
fill="#000000" stroke="none">
<path d="M909 513 c0 -5 0 -59 1 -122 2 -167 25 -201 138 -201 117 0 142 38
142 215 l0 116 -27 -3 -27 -3 3 -113 3 -112 -30 -30 c-32 -31 -54 -36 -95 -21
-35 14 -47 59 -47 177 l0 104 -30 0 c-16 0 -30 -3 -31 -7z"/>
<path d="M1280 355 l0 -165 30 0 30 0 0 100 c0 55 2 100 4 100 5 0 77 -75 153
-159 25 -27 46 -42 58 -40 10 2 18 7 17 12 -1 4 -2 77 -2 162 l0 155 -28 0
-28 0 4 -107 4 -108 -27 25 c-15 14 -59 62 -98 108 -51 59 -77 82 -94 82 l-23
0 0 -165z"/>
<path d="M1751 507 c-6 -8 -36 -76 -66 -153 -31 -76 -59 -145 -62 -151 -3 -9
5 -13 24 -13 25 0 33 6 48 40 18 40 19 40 72 40 54 0 55 0 71 -40 15 -35 21
-40 50 -40 17 0 32 2 32 4 0 2 -27 74 -60 161 -33 87 -60 159 -60 161 0 10
-39 2 -49 -9z m42 -138 c9 -23 14 -46 11 -50 -7 -12 -61 -11 -69 0 -6 11 24
91 35 91 4 0 14 -19 23 -41z"/>
<path d="M1970 356 l0 -166 35 0 35 0 0 70 0 70 80 0 80 0 0 -70 0 -70 35 0
35 0 -2 163 -3 162 -32 3 -33 3 0 -70 0 -71 -80 0 -79 0 -3 68 -3 67 -32 3
-33 3 0 -165z"/>
<path d="M2350 410 c0 -119 11 -161 51 -199 19 -17 35 -21 91 -21 64 0 71 2
106 34 l37 34 3 131 4 131 -31 0 -31 0 0 -116 c0 -63 -5 -124 -11 -135 -23
-44 -108 -48 -132 -6 -6 12 -14 73 -17 137 l-5 115 -32 3 -33 3 0 -111z"/>
<path d="M2723 499 c4 -13 7 -88 7 -166 l0 -143 33 0 32 0 -4 51 c-4 69 10 80
49 38 17 -19 38 -46 46 -61 12 -23 21 -28 54 -28 22 0 40 3 40 6 0 3 -20 30
-45 58 -25 29 -45 57 -45 63 0 5 11 19 24 30 32 28 41 74 22 110 -25 48 -42
56 -133 61 l-86 5 6 -24z m120 -30 c27 -15 37 -28 37 -53 0 -28 -39 -66 -67
-66 -21 0 -23 4 -23 59 0 53 4 64 28 70 2 1 13 -4 25 -10z"/>
<path d="M1222 65 c0 -22 2 -34 5 -27 3 8 9 10 16 3 9 -6 12 -2 12 14 0 17 -3
21 -12 14 -8 -7 -13 -3 -16 13 -2 13 -5 6 -5 -17z"/>
<path d="M910 66 c0 -14 4 -27 8 -30 5 -3 6 8 4 25 -5 35 -12 38 -12 5z"/>
<path d="M990 83 c0 -4 12 -16 25 -26 14 -10 25 -14 25 -10 0 4 -12 16 -25 26
-14 10 -25 14 -25 10z"/>
<path d="M1072 60 c0 -19 2 -27 5 -17 2 9 2 25 0 35 -3 9 -5 1 -5 -18z"/>
<path d="M1172 70 c0 -14 2 -19 5 -12 2 6 2 18 0 25 -3 6 -5 1 -5 -13z"/>
<path d="M1280 88 c0 -3 7 -19 15 -34 8 -16 15 -22 15 -14 -1 8 -7 24 -15 34
-8 11 -15 17 -15 14z"/>
<path d="M1405 60 c0 -15 3 -26 8 -23 4 2 7 13 7 23 0 10 -3 21 -7 23 -5 3 -8
-8 -8 -23z"/>
<path d="M1440 64 c-6 -15 -8 -29 -5 -32 3 -3 5 0 5 6 0 6 7 17 15 26 9 9 11
17 5 21 -5 3 -15 -6 -20 -21z"/>
<path d="M1500 60 c0 -16 4 -30 8 -30 5 0 7 13 4 30 -2 17 -6 30 -8 30 -2 0
-4 -13 -4 -30z"/>
<path d="M1625 60 c19 -20 31 -26 34 -18 2 6 -1 14 -8 16 -6 2 -18 10 -25 18
-29 28 -29 13 -1 -16z"/>
<path d="M1690 80 c0 -5 5 -10 10 -10 6 0 10 5 10 10 0 6 -4 10 -10 10 -5 0
-10 -4 -10 -10z"/>
<path d="M1847 83 c-9 -9 -9 -41 1 -46 4 -3 7 8 7 24 0 16 0 29 -1 29 0 0 -4
-3 -7 -7z"/>
<path d="M1887 69 c4 -13 8 -18 11 -10 2 7 -1 18 -6 23 -8 8 -9 4 -5 -13z"/>
<path d="M1920 83 c1 -12 50 -46 50 -35 0 6 -11 17 -25 26 -14 9 -25 13 -25 9z"/>
<path d="M2002 65 c-7 -15 -11 -30 -8 -32 2 -2 7 6 11 18 l7 22 14 -24 c9 -15
13 -19 14 -8 0 8 -6 23 -13 33 -12 16 -14 16 -25 -9z"/>
<path d="M2142 60 c0 -19 2 -27 5 -17 2 9 2 25 0 35 -3 9 -5 1 -5 -18z"/>
<path d="M2175 61 c0 -16 3 -27 8 -24 4 2 7 15 7 29 0 13 -3 24 -7 24 -5 0 -8
-13 -8 -29z"/>
<path d="M2382 65 c0 -16 2 -22 5 -12 2 9 2 23 0 30 -3 6 -5 -1 -5 -18z"/>
<path d="M2422 65 c0 -16 2 -22 5 -12 2 9 2 23 0 30 -3 6 -5 -1 -5 -18z"/>
<path d="M2572 60 c0 -19 2 -27 5 -17 2 9 2 25 0 35 -3 9 -5 1 -5 -18z"/>
<path d="M2601 58 c1 -23 3 -26 6 -10 3 12 9 19 15 16 6 -4 9 -1 6 6 -10 30
-28 21 -27 -12z"/>
<path d="M2802 60 c0 -19 2 -27 5 -17 2 9 2 25 0 35 -3 9 -5 1 -5 -18z"/>
<path d="M2842 69 c-7 -11 -11 -23 -8 -26 3 -3 9 2 12 12 6 15 8 15 20 -6 9
-16 13 -19 14 -8 0 8 -6 23 -12 32 -12 16 -14 16 -26 -4z"/>
<path d="M2900 71 c0 -13 3 -21 7 -18 3 4 12 2 20 -4 9 -9 13 -8 13 0 0 6 7
11 15 11 8 0 15 7 15 17 0 14 -2 14 -20 -2 -20 -18 -21 -18 -35 1 -14 18 -14
18 -15 -5z"/>
<path d="M1103 67 c4 -10 7 -23 7 -28 0 -5 5 -9 10 -9 15 0 12 20 -7 38 -16
16 -16 16 -10 -1z"/>
<path d="M2750 70 c0 -5 5 -10 10 -10 6 0 10 5 10 10 0 6 -4 10 -10 10 -5 0
-10 -4 -10 -10z"/>
<path d="M2450 62 c0 -4 11 -12 24 -18 20 -9 23 -8 19 5 -4 16 -43 27 -43 13z"/>
<path d="M1466 47 c3 -10 9 -15 12 -12 3 3 0 11 -7 18 -10 9 -11 8 -5 -6z"/>
<path d="M2640 50 c0 -5 5 -10 10 -10 6 0 10 5 10 10 0 6 -4 10 -10 10 -5 0
-10 -4 -10 -10z"/>
<path d="M1747 39 c7 -7 15 -10 18 -7 3 3 -2 9 -12 12 -14 6 -15 5 -6 -5z"/>
</g>
</svg>
